<svg width="13" height="13" viewBox="0 0 13 13" fill="none" xmlns="http://www.w3.org/2000/svg">
<path fill-rule="evenodd" clip-rule="evenodd" d="M2.88906 1.09546C3.95798 0.38123 5.21469 0 6.50027 0C8.22418 0 9.87747 0.684822 11.0965 1.90381C12.3154 3.1228 13.0003 4.77609 13.0003 6.5C13.0003 7.78558 12.619 9.04229 11.9048 10.1112C11.1906 11.1801 10.1754 12.0133 8.9877 12.5052C7.79998 12.9972 6.49308 13.1259 5.2322 12.8751C3.97133 12.6243 2.81312 12.0052 1.90408 11.0962C0.995036 10.1872 0.37595 9.02894 0.125146 7.76807C-0.125657 6.50719 0.00304988 5.20029 0.495019 4.01257C0.986989 2.82485 1.82014 1.80969 2.88906 1.09546ZM3.4446 11.0731C4.34907 11.6775 5.41247 12 6.50027 12C7.95896 12 9.35786 11.4205 10.3893 10.389C11.4208 9.35759 12.0003 7.95869 12.0003 6.5C12.0003 5.4122 11.6777 4.34881 11.0734 3.44434C10.469 2.53987 9.61 1.83498 8.60501 1.4187C7.60001 1.00242 6.49417 0.893494 5.42727 1.10571C4.36037 1.31793 3.38042 1.84177 2.61123 2.61096C1.84204 3.38015 1.3182 4.36011 1.10598 5.427C0.893763 6.4939 1.00269 7.59974 1.41897 8.60474C1.83525 9.60973 2.54013 10.4688 3.4446 11.0731ZM7.00024 3H6.00024V8H7.00024V3ZM7.00024 9H6.00024V10H7.00024V9Z" fill="#424242"/>
</svg>
