<svg width="14" height="14" viewBox="0 0 14 14" fill="none" xmlns="http://www.w3.org/2000/svg">
<path fill-rule="evenodd" clip-rule="evenodd" d="M13.5002 1H12.0002V0H11.0002V1H3.00024V0H2.00024V1H0.500244L0.000244141 1.5V13.5L0.500244 14H13.5002L14.0002 13.5V1.5L13.5002 1ZM13.0002 13H1.00024V4H13.0002V13ZM13.0002 3H1.00024V2H13.0002V3ZM3.00024 7H2.00024V8H3.00024V7ZM2.00024 9H3.00024V10H2.00024V9ZM3.00024 11H2.00024V12H3.00024V11ZM5.00024 7H6.00024V8H5.00024V7ZM6.00024 9H5.00024V10H6.00024V9ZM5.00024 11H6.00024V12H5.00024V11ZM6.00024 5H5.00024V6H6.00024V5ZM8.00024 7H9.00024V8H8.00024V7ZM9.00024 9H8.00024V10H9.00024V9ZM8.00024 11H9.00024V12H8.00024V11ZM9.00024 5H8.00024V6H9.00024V5ZM11.0002 7H12.0002V8H11.0002V7ZM12.0002 9H11.0002V10H12.0002V9ZM11.0002 5H12.0002V6H11.0002V5Z" fill="#424242"/>
</svg>
