<svg width="10" height="14" viewBox="0 0 10 14" fill="none" xmlns="http://www.w3.org/2000/svg">
<path d="M4.50024 8H6.50024V7H5.00024V4.5H4.00024V7.5L4.50024 8Z" fill="#424242"/>
<path fill-rule="evenodd" clip-rule="evenodd" d="M2.50024 2.66895C1.00574 3.53345 0.000244141 5.14929 0.000244141 7C0.000244141 8.85071 1.00574 10.4666 2.50024 11.3311V13.5L3.00024 14H7.00024L7.50024 13.5V11.3311C8.99475 10.4666 10.0002 8.85071 10.0002 7C10.0002 5.14929 8.99475 3.53345 7.50024 2.66895V0.5L7.00024 0H3.00024L2.50024 0.5V2.66895ZM9.00024 7C9.00024 9.20911 7.20941 11 5.00024 11C2.79108 11 1.00024 9.20911 1.00024 7C1.00024 4.79089 2.79108 3 5.00024 3C7.20941 3 9.00024 4.79089 9.00024 7Z" fill="#424242"/>
</svg>
