<svg width="66" height="70" viewBox="0 0 66 70" fill="none" xmlns="http://www.w3.org/2000/svg">
<path fill-rule="evenodd" clip-rule="evenodd" d="M14.8957 0.178923C14.6316 -0.135826 14.1217 -0.0153556 14.0264 0.384307L9.67873 18.6113C9.60105 18.937 9.85912 19.2455 10.1934 19.2266L28.9437 18.164C29.3546 18.1407 29.563 17.6587 29.2985 17.3434L24.2148 11.2849C26.9449 10.352 29.8399 9.86474 32.8125 9.86474C47.4826 9.86474 59.375 21.7572 59.375 36.4272C59.375 51.0973 47.4826 62.9897 32.8125 62.9897C18.1424 62.9897 6.25 51.0973 6.25 36.4272C6.25 33.9645 6.5835 31.5524 7.23378 29.2341L1.21604 27.5462C0.423733 30.3708 0 33.3495 0 36.4272C0 54.5491 14.6907 69.2397 32.8125 69.2397C50.9343 69.2397 65.625 54.5491 65.625 36.4272C65.625 18.3054 50.9343 3.61474 32.8125 3.61474C28.2542 3.61474 23.913 4.54421 19.9681 6.22397L14.8957 0.178923Z" fill="#FABB18"/>
</svg>
