<svg width="14" height="10" viewBox="0 0 14 10" fill="none" xmlns="http://www.w3.org/2000/svg">
<path d="M14 2.66L7.18 0H6.82L0 2.66V9H1V4L3.31 4.9C2.79973 5.62666 2.52405 6.49208 2.52 7.38C2.51012 7.48978 2.51012 7.60022 2.52 7.71V7.82L2.8 8.22L6.78 10H7.19L11.13 8.19L11.41 7.79V7.67C11.41 7.57 11.41 7.46 11.41 7.35C11.4043 6.46696 11.1325 5.60614 10.63 4.88L14 3.57V2.66ZM10.48 7.34V7.41L7 9L3.5 7.4C3.49532 7.38027 3.49532 7.35973 3.5 7.34C3.50544 6.56927 3.76956 5.82269 4.25 5.22L6.83 6.22H7.19L9.75 5.22C10.226 5.8238 10.4834 6.57112 10.48 7.34ZM7 5.25L1.52 3.12L7 1L12.48 3.14L7 5.25Z" fill="#424242"/>
</svg>
