<svg width="14" height="11" viewBox="0 0 14 11" fill="none" xmlns="http://www.w3.org/2000/svg">
<path fill-rule="evenodd" clip-rule="evenodd" d="M9.70724 1H13.5002L14.0002 1.5V10.5L13.5002 11H0.500244L0.000244141 10.5V1.5L0.500244 1H4.29324L5.14624 0.146L5.50024 0H8.50024L8.85424 0.146L9.70724 1ZM1.00024 10H13.0002V2H9.50024L9.14624 1.854L8.29324 1H5.70724L4.85424 1.854L4.50024 2H1.00024V10ZM2.50024 3C2.40135 3 2.30468 3.02932 2.22246 3.08427C2.14023 3.13921 2.07615 3.2173 2.0383 3.30866C2.00046 3.40002 1.99056 3.50055 2.00985 3.59755C2.02914 3.69454 2.07676 3.78363 2.14669 3.85355C2.21662 3.92348 2.30571 3.9711 2.4027 3.99039C2.49969 4.00969 2.60022 3.99978 2.69159 3.96194C2.78295 3.9241 2.86104 3.86001 2.91598 3.77779C2.97092 3.69556 3.00024 3.59889 3.00024 3.5C3.00024 3.36739 2.94757 3.24021 2.8538 3.14645C2.76003 3.05268 2.63285 3 2.50024 3ZM7.00025 4C7.39581 4 7.78249 4.1173 8.11139 4.33706C8.44028 4.55682 8.69663 4.86918 8.848 5.23463C8.99938 5.60009 9.03899 6.00222 8.96182 6.39018C8.88465 6.77814 8.69416 7.13451 8.41446 7.41421C8.13475 7.69392 7.77839 7.8844 7.39043 7.96157C7.00246 8.03874 6.60033 7.99913 6.23488 7.84776C5.86943 7.69638 5.55707 7.44004 5.33731 7.11114C5.11754 6.78224 5.00025 6.39556 5.00025 6C5.00025 5.46957 5.21096 4.96086 5.58603 4.58579C5.9611 4.21071 6.46981 4 7.00025 4ZM7.00025 3C6.4069 3 5.82688 3.17595 5.33353 3.50559C4.84019 3.83524 4.45567 4.30377 4.22861 4.85195C4.00154 5.40013 3.94213 6.00333 4.05789 6.58527C4.17365 7.16721 4.45937 7.70176 4.87893 8.12132C5.29848 8.54088 5.83303 8.8266 6.41497 8.94236C6.99692 9.05811 7.60012 8.9987 8.1483 8.77164C8.69647 8.54458 9.16501 8.16006 9.49465 7.66671C9.8243 7.17336 10.0002 6.59334 10.0002 6C10.0002 5.20435 9.68418 4.44129 9.12157 3.87868C8.55896 3.31607 7.79589 3 7.00025 3Z" fill="#424242"/>
</svg>
