<svg width="10" height="13" viewBox="0 0 10 13" fill="none" xmlns="http://www.w3.org/2000/svg">
<path fill-rule="evenodd" clip-rule="evenodd" d="M7.671 7.65806C7.33217 7.9916 7.07181 8.36278 6.88889 8.77172C6.71079 9.17922 6.62126 9.62187 6.62126 10.1009V11.7012C6.62126 11.8807 6.58742 12.0503 6.51912 12.2091C6.45158 12.3661 6.35885 12.5038 6.24092 12.6213C6.123 12.7388 5.98489 12.8311 5.82747 12.8984C5.6683 12.9663 5.4983 13 5.31848 13H3.7123C3.53247 13 3.36247 12.9663 3.2033 12.8984C3.04589 12.8311 2.90778 12.7388 2.78985 12.6213C2.67192 12.5038 2.57919 12.3661 2.51166 12.2091C2.44336 12.0503 2.40951 11.8807 2.40951 11.7012V10.1009C2.40951 9.62203 2.31796 9.17952 2.13577 8.77209C1.95707 8.36336 1.69856 7.99156 1.35977 7.65806C0.924926 7.22903 0.589206 6.75003 0.353855 6.22134C0.117803 5.69107 0.000244141 5.11672 0.000244141 4.49953C0.000244141 4.08664 0.0536593 3.68802 0.160726 3.30397C0.267523 2.92089 0.419314 2.56286 0.616192 2.23018C0.812817 1.89377 1.04802 1.58911 1.32171 1.31641C1.59528 1.04383 1.89883 0.809534 2.23219 0.613644C2.57003 0.417639 2.93171 0.266202 3.31602 0.159833C3.7013 0.053198 4.10119 0 4.51539 0C4.92959 0 5.32947 0.053198 5.71475 0.159833C6.09907 0.266203 6.45828 0.41739 6.79207 0.613506C7.12964 0.80938 7.43538 1.0437 7.70907 1.31641C7.98275 1.5891 8.21795 1.89376 8.41457 2.23016C8.61146 2.56285 8.76325 2.92088 8.87005 3.30397C8.97712 3.68802 9.03053 4.08664 9.03053 4.49953C9.03053 5.11672 8.91297 5.69107 8.67692 6.22134C8.44157 6.75003 8.10585 7.22903 7.671 7.65806ZM5.62187 9.5H3.40891V11.7012C3.40891 11.7823 3.43744 11.8512 3.49913 11.9127C3.56083 11.9741 3.63031 12.0028 3.7123 12.0028H5.31848C5.40046 12.0028 5.46995 11.9741 5.53165 11.9127C5.59333 11.8512 5.62187 11.7823 5.62187 11.7012V9.5Z" fill="#DDB100"/>
</svg>
