<svg width="12" height="14" viewBox="0 0 12 14" fill="none" xmlns="http://www.w3.org/2000/svg">
<path d="M11.0002 6H10.0002V4C10.0002 2.93913 9.57882 1.92178 8.82867 1.17163C8.07853 0.421485 7.06111 0 6.00024 0C4.93938 0 3.92196 0.421485 3.17181 1.17163C2.42167 1.92178 2.00024 2.93913 2.00024 4V6H1.00024L0.000244141 7V13L1.00024 14H11.0002L12.0002 13V7L11.0002 6ZM3.00024 4C3.00024 3.20435 3.3163 2.44127 3.87891 1.87866C4.44152 1.31605 5.20459 1 6.00024 1C6.79589 1 7.55897 1.31605 8.12158 1.87866C8.68419 2.44127 9.00024 3.20435 9.00024 4V6H3.00024V4ZM11.0002 13H1.00024V7H11.0002V13Z" fill="#424242"/>
</svg>
