<svg width="12" height="14" viewBox="0 0 12 14" fill="none" xmlns="http://www.w3.org/2000/svg">
<path fill-rule="evenodd" clip-rule="evenodd" d="M12.0003 9V0.5L11.5003 0H1.74034C1.51099 0.00253775 1.28399 0.0465815 1.07034 0.13C0.85497 0.225709 0.660885 0.363464 0.499469 0.535184C0.338052 0.706903 0.212554 0.90913 0.130337 1.13C0.0485406 1.3267 0.00444181 1.53701 0.000337122 1.75V11.25C-0.0020666 11.4798 0.0421578 11.7078 0.130337 11.92C0.307487 12.3473 0.644899 12.6883 1.07034 12.87C1.28399 12.9534 1.51099 12.9975 1.74034 13H2.00034V12H1.74034C1.64056 12.0003 1.5418 11.9799 1.45034 11.94C1.26929 11.8649 1.12543 11.721 1.05034 11.54C1.01839 11.4466 1.00151 11.3487 1.00034 11.25V10.75C1.00151 10.6513 1.01839 10.5534 1.05034 10.46C1.12543 10.279 1.26929 10.1351 1.45034 10.06C1.54043 10.0207 1.6376 10.0003 1.73585 10H1.74034H2.00034H11.0003V12H7.00034V13H11.5003L12.0003 12.5V10V9ZM2.00034 9V1H11.0003V9H2.00034ZM3.00034 2H4.00034V3H3.00034V2ZM3.00034 4H4.00034V5H3.00034V4ZM4.00034 6H3.00034V7H4.00034V6ZM4.50034 12.49L3.28034 14H3.00034V11H6.00034V14H5.72034L4.50034 12.49Z" fill="#424242"/>
</svg>
