<svg width="14" height="14" viewBox="0 0 14 14" fill="none" xmlns="http://www.w3.org/2000/svg">
<path fill-rule="evenodd" clip-rule="evenodd" d="M8.59478 5.25211L7.00024 0L5.4057 5.25211H0.000244141L4.37335 8.65247L2.74985 14L7.00024 10.695L11.2506 14L9.62714 8.65247L14.0002 5.25211H8.59478ZM1.34828 5.72168H5.72068L7.00024 1.50706L7.00026 1.50708L5.7207 5.7217H1.3483L1.34828 5.72168ZM4.88563 8.4722L3.57873 12.7769L3.57876 12.7769L4.88565 8.47221L4.88563 8.4722ZM12.6522 5.7217L12.6522 5.72168H8.2798L8.27982 5.7217H12.6522ZM3.90138 6.6229H6.26871L7.00026 4.21332L7.73181 6.6229H10.0991L8.18393 8.1121L8.91548 10.5217L7.00026 9.03247L5.08505 10.5217L5.81659 8.1121L3.90138 6.6229Z" fill="#424242"/>
</svg>
